# xmcd
#
# Track frame offsets:
#	183
#	12000
#	22948
#	33035
#	49108
#	59583
#	71253
#	81900
#	93285
#	103993
#
# Disc length: 1568
#
# Revision: 2
# Processed by: cddbd v1.5.1PL0 Copyright (c) Steve Scherf et al.
# Submitted via: CDex 1.50
# Normalized: r1:TRMNUM
#
DISCID=72061e0a
DTITLE=Various Artist - Golden Country Jukebox Favorites
DYEAR=1992
DGENRE=Country
TTITLE0=Tennessee Ernie Ford-Sixteen Tons
TTITLE1=Faron Young-Hello Walls
TTITLE2=Sonny James-You're The Only World
TTITLE3=Billie Jo Spears-Blanket on the ground
TTITLE4=Ferlin Husky-Wings of a Dove
TTITLE5=Tennessee Ernie Ford-Shot-Gun Boogie
TTITLE6=Faron Young-If You Aion't Lovin'
TTITLE7=Sonny James-Young Love
TTITLE8=Billie Jo Spears-Your Good Girl's Gonna Go Bad
TTITLE9=Ferlin Husky-The Waltz You Saved Me From
EXTD=YEAR: 1992
EXTT0=
EXTT1=
EXTT2=
EXTT3=
EXTT4=
EXTT5=
EXTT6=
EXTT7=
EXTT8=
EXTT9=
PLAYORDER=
